<svg width="305" height="202" viewBox="0 0 305 202" fill="none" xmlns="http://www.w3.org/2000/svg">
<g filter="url(#filter0_dd_237_85)">
<rect x="15" y="14.2204" width="275" height="172.857" rx="9.42857" fill="#7C3AED"/>
</g>
<g clip-path="url(#clip0_237_85)">
<path fill-rule="evenodd" clip-rule="evenodd" d="M250.756 58.3021H261.271V39.5552H250.756V58.3021Z" fill="#FF5F00"/>
<path fill-rule="evenodd" clip-rule="evenodd" d="M251.424 48.9287C251.424 45.1254 253.219 41.738 256.014 39.5552C253.969 37.9586 251.391 37.0061 248.587 37.0061C241.951 37.0061 236.572 42.3441 236.572 48.9287C236.572 55.5132 241.951 60.8512 248.587 60.8512C251.391 60.8512 253.969 59.8988 256.014 58.3021C253.219 56.119 251.424 52.732 251.424 48.9287Z" fill="#EB001B"/>
<path fill-rule="evenodd" clip-rule="evenodd" d="M275.08 56.3166V55.8539H274.958L274.818 56.1722L274.678 55.8539H274.556V56.3166H274.642V55.9675L274.774 56.2686H274.863L274.994 55.9669V56.3166H275.08ZM274.309 56.3166V55.9328H274.465V55.8546H274.068V55.9328H274.224V56.3166H274.309ZM275.455 48.9286C275.455 55.5131 270.076 60.8511 263.44 60.8511C260.636 60.8511 258.057 59.8987 256.013 58.302C258.808 56.1192 260.603 52.7319 260.603 48.9286C260.603 45.1256 258.808 41.7383 256.013 39.5551C258.057 37.9585 260.636 37.006 263.44 37.006C270.076 37.006 275.455 42.344 275.455 48.9286Z" fill="#F79E1B"/>
</g>
<path d="M33.9068 45.8169C32.6428 45.8169 31.5988 45.3969 30.7748 44.5569C29.9508 43.7169 29.5388 42.6809 29.5388 41.4489C29.5388 40.2089 29.9508 39.1729 30.7748 38.3409C31.5988 37.5009 32.6428 37.0809 33.9068 37.0809C34.6668 37.0809 35.3668 37.2609 36.0068 37.6209C36.6548 37.9729 37.1588 38.4529 37.5188 39.0609L36.0908 39.8889C35.8828 39.5129 35.5868 39.2209 35.2028 39.0129C34.8188 38.7969 34.3868 38.6889 33.9068 38.6889C33.0908 38.6889 32.4308 38.9449 31.9268 39.4569C31.4308 39.9689 31.1828 40.6329 31.1828 41.4489C31.1828 42.2569 31.4308 42.9169 31.9268 43.4289C32.4308 43.9409 33.0908 44.1969 33.9068 44.1969C34.3868 44.1969 34.8188 44.0929 35.2028 43.8849C35.5948 43.6689 35.8908 43.3769 36.0908 43.0089L37.5188 43.8369C37.1588 44.4449 36.6588 44.9289 36.0188 45.2889C35.3788 45.6409 34.6748 45.8169 33.9068 45.8169ZM40.1059 40.6809C40.2499 40.2969 40.4859 40.0089 40.8139 39.8169C41.1499 39.6249 41.5219 39.5289 41.9299 39.5289V41.2569C41.4579 41.2009 41.0339 41.2969 40.6579 41.5449C40.2899 41.7929 40.1059 42.2049 40.1059 42.7809V45.6489H38.5579V39.6489H40.1059V40.6809ZM43.9205 43.2849C44.1285 44.0369 44.6925 44.4129 45.6125 44.4129C46.2045 44.4129 46.6525 44.2129 46.9565 43.8129L48.2045 44.5329C47.6125 45.3889 46.7405 45.8169 45.5885 45.8169C44.5965 45.8169 43.8005 45.5169 43.2005 44.9169C42.6005 44.3169 42.3005 43.5609 42.3005 42.6489C42.3005 41.7449 42.5965 40.9929 43.1885 40.3929C43.7805 39.7849 44.5405 39.4809 45.4685 39.4809C46.3485 39.4809 47.0725 39.7849 47.6405 40.3929C48.2165 41.0009 48.5045 41.7529 48.5045 42.6489C48.5045 42.8489 48.4845 43.0609 48.4445 43.2849H43.9205ZM43.8965 42.0849H46.9565C46.8685 41.6769 46.6845 41.3729 46.4045 41.1729C46.1325 40.9729 45.8205 40.8729 45.4685 40.8729C45.0525 40.8729 44.7085 40.9809 44.4365 41.1969C44.1645 41.4049 43.9845 41.7009 43.8965 42.0849ZM54.0863 37.2489H55.6343V45.6489H54.0863V44.9409C53.6303 45.5249 52.9823 45.8169 52.1423 45.8169C51.3343 45.8169 50.6423 45.5129 50.0663 44.9049C49.4983 44.2889 49.2143 43.5369 49.2143 42.6489C49.2143 41.7609 49.4983 41.0129 50.0663 40.4049C50.6423 39.7889 51.3343 39.4809 52.1423 39.4809C52.9823 39.4809 53.6303 39.7729 54.0863 40.3569V37.2489ZM51.2303 43.8729C51.5503 44.1849 51.9503 44.3409 52.4303 44.3409C52.9103 44.3409 53.3063 44.1849 53.6183 43.8729C53.9303 43.5529 54.0863 43.1449 54.0863 42.6489C54.0863 42.1529 53.9303 41.7489 53.6183 41.4369C53.3063 41.1169 52.9103 40.9569 52.4303 40.9569C51.9503 40.9569 51.5503 41.1169 51.2303 41.4369C50.9183 41.7489 50.7623 42.1529 50.7623 42.6489C50.7623 43.1449 50.9183 43.5529 51.2303 43.8729ZM57.818 38.9289C57.562 38.9289 57.338 38.8369 57.146 38.6529C56.962 38.4609 56.87 38.2369 56.87 37.9809C56.87 37.7249 56.962 37.5009 57.146 37.3089C57.338 37.1169 57.562 37.0209 57.818 37.0209C58.082 37.0209 58.306 37.1169 58.49 37.3089C58.682 37.5009 58.778 37.7249 58.778 37.9809C58.778 38.2369 58.682 38.4609 58.49 38.6529C58.306 38.8369 58.082 38.9289 57.818 38.9289ZM57.05 45.6489V39.6489H58.598V45.6489H57.05ZM63.4469 41.1369H62.0909V43.6329C62.0909 43.8409 62.1429 43.9929 62.2469 44.0889C62.3509 44.1849 62.5029 44.2409 62.7029 44.2569C62.9029 44.2649 63.1509 44.2609 63.4469 44.2449V45.6489C62.3829 45.7689 61.6309 45.6689 61.1909 45.3489C60.7589 45.0289 60.5429 44.4569 60.5429 43.6329V41.1369H59.4989V39.6489H60.5429V38.4369L62.0909 37.9689V39.6489H63.4469V41.1369ZM71.6881 45.8169C70.4241 45.8169 69.3801 45.3969 68.5561 44.5569C67.7321 43.7169 67.3201 42.6809 67.3201 41.4489C67.3201 40.2089 67.7321 39.1729 68.5561 38.3409C69.3801 37.5009 70.4241 37.0809 71.6881 37.0809C72.4481 37.0809 73.1481 37.2609 73.7881 37.6209C74.4361 37.9729 74.9401 38.4529 75.3001 39.0609L73.8721 39.8889C73.6641 39.5129 73.3681 39.2209 72.9841 39.0129C72.6001 38.7969 72.1681 38.6889 71.6881 38.6889C70.8721 38.6889 70.2121 38.9449 69.7081 39.4569C69.2121 39.9689 68.9641 40.6329 68.9641 41.4489C68.9641 42.2569 69.2121 42.9169 69.7081 43.4289C70.2121 43.9409 70.8721 44.1969 71.6881 44.1969C72.1681 44.1969 72.6001 44.0929 72.9841 43.8849C73.3761 43.6689 73.6721 43.3769 73.8721 43.0089L75.3001 43.8369C74.9401 44.4449 74.4401 44.9289 73.8001 45.2889C73.1601 45.6409 72.4561 45.8169 71.6881 45.8169ZM80.8405 39.6489H82.3885V45.6489H80.8405V44.9409C80.3765 45.5249 79.7245 45.8169 78.8845 45.8169C78.0845 45.8169 77.3965 45.5129 76.8205 44.9049C76.2525 44.2889 75.9685 43.5369 75.9685 42.6489C75.9685 41.7609 76.2525 41.0129 76.8205 40.4049C77.3965 39.7889 78.0845 39.4809 78.8845 39.4809C79.7245 39.4809 80.3765 39.7729 80.8405 40.3569V39.6489ZM77.9845 43.8729C78.2965 44.1849 78.6925 44.3409 79.1725 44.3409C79.6525 44.3409 80.0485 44.1849 80.3605 43.8729C80.6805 43.5529 80.8405 43.1449 80.8405 42.6489C80.8405 42.1529 80.6805 41.7489 80.3605 41.4369C80.0485 41.1169 79.6525 40.9569 79.1725 40.9569C78.6925 40.9569 78.2965 41.1169 77.9845 41.4369C77.6725 41.7489 77.5165 42.1529 77.5165 42.6489C77.5165 43.1449 77.6725 43.5529 77.9845 43.8729ZM85.3402 40.6809C85.4842 40.2969 85.7202 40.0089 86.0482 39.8169C86.3842 39.6249 86.7562 39.5289 87.1642 39.5289V41.2569C86.6922 41.2009 86.2682 41.2969 85.8922 41.5449C85.5242 41.7929 85.3402 42.2049 85.3402 42.7809V45.6489H83.7922V39.6489H85.3402V40.6809ZM92.3949 37.2489H93.9429V45.6489H92.3949V44.9409C91.9389 45.5249 91.2909 45.8169 90.4509 45.8169C89.6429 45.8169 88.9509 45.5129 88.3749 44.9049C87.8069 44.2889 87.5229 43.5369 87.5229 42.6489C87.5229 41.7609 87.8069 41.0129 88.3749 40.4049C88.9509 39.7889 89.6429 39.4809 90.4509 39.4809C91.2909 39.4809 91.9389 39.7729 92.3949 40.3569V37.2489ZM89.5389 43.8729C89.8589 44.1849 90.2589 44.3409 90.7389 44.3409C91.2189 44.3409 91.6149 44.1849 91.9269 43.8729C92.2389 43.5529 92.3949 43.1449 92.3949 42.6489C92.3949 42.1529 92.2389 41.7489 91.9269 41.4369C91.6149 41.1169 91.2189 40.9569 90.7389 40.9569C90.2589 40.9569 89.8589 41.1169 89.5389 41.4369C89.2269 41.7489 89.0709 42.1529 89.0709 42.6489C89.0709 43.1449 89.2269 43.5529 89.5389 43.8729Z" fill="white"/>
<path d="M32.2268 166.805C31.6188 166.805 31.0828 166.677 30.6188 166.421C30.1548 166.165 29.8148 165.793 29.5988 165.305L30.5468 164.753C30.7948 165.393 31.3548 165.713 32.2268 165.713C32.7628 165.713 33.1828 165.585 33.4868 165.329C33.7908 165.073 33.9428 164.693 33.9428 164.189V158.249H35.0468V164.189C35.0468 165.029 34.7788 165.677 34.2428 166.133C33.7148 166.581 33.0428 166.805 32.2268 166.805ZM41.5356 160.649H42.5796V166.649H41.5356V165.617C41.0156 166.409 40.2596 166.805 39.2676 166.805C38.4276 166.805 37.7116 166.501 37.1196 165.893C36.5276 165.277 36.2316 164.529 36.2316 163.649C36.2316 162.769 36.5276 162.025 37.1196 161.417C37.7116 160.801 38.4276 160.493 39.2676 160.493C40.2596 160.493 41.0156 160.889 41.5356 161.681V160.649ZM39.3996 165.797C40.0076 165.797 40.5156 165.593 40.9236 165.185C41.3316 164.769 41.5356 164.257 41.5356 163.649C41.5356 163.041 41.3316 162.533 40.9236 162.125C40.5156 161.709 40.0076 161.501 39.3996 161.501C38.7996 161.501 38.2956 161.709 37.8876 162.125C37.4796 162.533 37.2756 163.041 37.2756 163.649C37.2756 164.257 37.4796 164.769 37.8876 165.185C38.2956 165.593 38.7996 165.797 39.3996 165.797ZM46.9814 166.805C46.0774 166.805 45.3254 166.505 44.7254 165.905C44.1254 165.297 43.8254 164.545 43.8254 163.649C43.8254 162.753 44.1254 162.005 44.7254 161.405C45.3254 160.797 46.0774 160.493 46.9814 160.493C47.5734 160.493 48.1054 160.637 48.5774 160.925C49.0494 161.205 49.4014 161.585 49.6334 162.065L48.7574 162.569C48.6054 162.249 48.3694 161.993 48.0494 161.801C47.7374 161.609 47.3814 161.513 46.9814 161.513C46.3814 161.513 45.8774 161.717 45.4694 162.125C45.0694 162.533 44.8694 163.041 44.8694 163.649C44.8694 164.249 45.0694 164.753 45.4694 165.161C45.8774 165.569 46.3814 165.773 46.9814 165.773C47.3814 165.773 47.7414 165.681 48.0614 165.497C48.3814 165.305 48.6254 165.049 48.7934 164.729L49.6814 165.245C49.4254 165.717 49.0574 166.097 48.5774 166.385C48.0974 166.665 47.5654 166.805 46.9814 166.805ZM55.7882 166.649H54.4922L51.7562 163.805V166.649H50.7122V158.249H51.7562V163.301L54.3482 160.649H55.6922L52.8242 163.553L55.7882 166.649ZM60.983 165.593H64.607V166.649H59.867V158.249H60.983V165.593ZM66.116 164.129C66.22 164.665 66.464 165.081 66.848 165.377C67.24 165.673 67.72 165.821 68.288 165.821C69.08 165.821 69.656 165.529 70.016 164.945L70.904 165.449C70.32 166.353 69.44 166.805 68.264 166.805C67.312 166.805 66.536 166.509 65.936 165.917C65.344 165.317 65.048 164.561 65.048 163.649C65.048 162.745 65.34 161.993 65.924 161.393C66.508 160.793 67.264 160.493 68.192 160.493C69.072 160.493 69.788 160.805 70.34 161.429C70.9 162.045 71.18 162.789 71.18 163.661C71.18 163.813 71.168 163.969 71.144 164.129H66.116ZM68.192 161.477C67.632 161.477 67.168 161.637 66.8 161.957C66.432 162.269 66.204 162.689 66.116 163.217H70.124C70.036 162.649 69.812 162.217 69.452 161.921C69.092 161.625 68.672 161.477 68.192 161.477ZM79.2138 160.649H80.3058L78.4458 166.649H77.3778L75.9738 162.209L74.5698 166.649H73.5018L71.6418 160.649H72.7338L74.0538 165.209L75.4698 160.649H76.4778L77.8938 165.221L79.2138 160.649ZM81.9081 159.557C81.7081 159.557 81.5401 159.489 81.4041 159.353C81.2681 159.217 81.2001 159.053 81.2001 158.861C81.2001 158.669 81.2681 158.505 81.4041 158.369C81.5401 158.225 81.7081 158.153 81.9081 158.153C82.1001 158.153 82.2641 158.225 82.4001 158.369C82.5361 158.505 82.6041 158.669 82.6041 158.861C82.6041 159.053 82.5361 159.217 82.4001 159.353C82.2641 159.489 82.1001 159.557 81.9081 159.557ZM81.3801 166.649V160.649H82.4241V166.649H81.3801ZM84.9051 162.269C84.9051 162.501 85.0211 162.689 85.2531 162.833C85.4851 162.969 85.7651 163.081 86.0931 163.169C86.4211 163.249 86.7491 163.345 87.0771 163.457C87.4051 163.561 87.6851 163.745 87.9171 164.009C88.1491 164.265 88.2651 164.597 88.2651 165.005C88.2651 165.549 88.0531 165.985 87.6291 166.313C87.2131 166.641 86.6771 166.805 86.0211 166.805C85.4371 166.805 84.9371 166.677 84.5211 166.421C84.1051 166.165 83.8091 165.825 83.6331 165.401L84.5331 164.885C84.6291 165.173 84.8091 165.401 85.0731 165.569C85.3371 165.737 85.6531 165.821 86.0211 165.821C86.3651 165.821 86.6491 165.757 86.8731 165.629C87.0971 165.493 87.2091 165.285 87.2091 165.005C87.2091 164.773 87.0931 164.589 86.8611 164.453C86.6291 164.309 86.3491 164.197 86.0211 164.117C85.6931 164.029 85.3651 163.929 85.0371 163.817C84.7091 163.705 84.4291 163.521 84.1971 163.265C83.9651 163.009 83.8491 162.681 83.8491 162.281C83.8491 161.761 84.0491 161.333 84.4491 160.997C84.8571 160.661 85.3651 160.493 85.9731 160.493C86.4611 160.493 86.8931 160.605 87.2691 160.829C87.6531 161.045 87.9411 161.349 88.1331 161.741L87.2571 162.233C87.0411 161.721 86.6131 161.465 85.9731 161.465C85.6771 161.465 85.4251 161.537 85.2171 161.681C85.0091 161.817 84.9051 162.013 84.9051 162.269Z" fill="white"/>
<path d="M257.668 165.617C257.1 166.409 256.304 166.805 255.28 166.805C254.256 166.805 253.46 166.409 252.892 165.617C252.324 164.825 252.04 163.769 252.04 162.449C252.04 161.129 252.324 160.073 252.892 159.281C253.46 158.489 254.256 158.093 255.28 158.093C256.304 158.093 257.1 158.489 257.668 159.281C258.236 160.073 258.52 161.129 258.52 162.449C258.52 163.769 258.236 164.825 257.668 165.617ZM253.708 164.861C254.076 165.429 254.6 165.713 255.28 165.713C255.96 165.713 256.484 165.429 256.852 164.861C257.228 164.293 257.416 163.489 257.416 162.449C257.416 161.409 257.228 160.605 256.852 160.037C256.484 159.461 255.96 159.173 255.28 159.173C254.6 159.173 254.076 159.457 253.708 160.025C253.34 160.593 253.156 161.401 253.156 162.449C253.156 163.489 253.34 164.293 253.708 164.861ZM262.287 161.153C263.127 161.153 263.819 161.417 264.363 161.945C264.907 162.465 265.179 163.141 265.179 163.973C265.179 164.805 264.907 165.485 264.363 166.013C263.819 166.541 263.127 166.805 262.287 166.805C261.439 166.805 260.743 166.541 260.199 166.013C259.663 165.485 259.395 164.805 259.395 163.973C259.395 163.325 259.563 162.765 259.899 162.293L262.599 158.249H263.871L261.891 161.177C262.067 161.161 262.199 161.153 262.287 161.153ZM260.991 165.257C261.327 165.577 261.759 165.737 262.287 165.737C262.815 165.737 263.243 165.577 263.571 165.257C263.907 164.929 264.075 164.501 264.075 163.973C264.075 163.445 263.907 163.021 263.571 162.701C263.243 162.381 262.815 162.221 262.287 162.221C261.751 162.221 261.319 162.381 260.991 162.701C260.663 163.021 260.499 163.445 260.499 163.973C260.499 164.501 260.663 164.929 260.991 165.257ZM266.596 167.849H265.972L270.772 157.049H271.396L266.596 167.849ZM272.287 166.649V165.737L275.251 162.713C276.043 161.921 276.439 161.241 276.439 160.673C276.439 160.201 276.295 159.833 276.007 159.569C275.719 159.305 275.367 159.173 274.951 159.173C274.159 159.173 273.583 159.549 273.223 160.301L272.287 159.749C272.551 159.205 272.915 158.793 273.379 158.513C273.851 158.233 274.371 158.093 274.939 158.093C275.643 158.093 276.255 158.325 276.775 158.789C277.295 159.253 277.555 159.877 277.555 160.661C277.555 161.509 277.055 162.433 276.055 163.433L273.907 165.569H277.711V166.649H272.287ZM280.501 158.249H281.461V166.649H280.357V159.449L278.569 159.977L278.293 159.017L280.501 158.249Z" fill="white"/>
<path d="M32.7068 98.5489H34.1468V111.149H32.4908V100.349L29.8088 101.141L29.3948 99.7009L32.7068 98.5489ZM36.2068 111.149V109.781L40.6528 105.245C41.8408 104.057 42.4348 103.037 42.4348 102.185C42.4348 101.477 42.2188 100.925 41.7868 100.529C41.3548 100.133 40.8268 99.9349 40.2028 99.9349C39.0148 99.9349 38.1508 100.499 37.6108 101.627L36.2068 100.799C36.6028 99.9829 37.1488 99.3649 37.8448 98.9449C38.5528 98.5249 39.3328 98.3149 40.1848 98.3149C41.2408 98.3149 42.1588 98.6629 42.9388 99.3589C43.7188 100.055 44.1088 100.991 44.1088 102.167C44.1088 103.439 43.3588 104.825 41.8588 106.325L38.6368 109.529H44.3428V111.149H36.2068ZM50.5632 103.715C51.5232 103.895 52.3092 104.309 52.9212 104.957C53.5332 105.605 53.8392 106.427 53.8392 107.423C53.8392 108.647 53.4192 109.613 52.5792 110.321C51.7392 111.029 50.7192 111.383 49.5192 111.383C48.5592 111.383 47.7072 111.167 46.9632 110.735C46.2192 110.291 45.6912 109.655 45.3792 108.827L46.7832 107.999C47.1552 109.163 48.0672 109.745 49.5192 109.745C50.2992 109.745 50.9352 109.541 51.4272 109.133C51.9192 108.725 52.1652 108.155 52.1652 107.423C52.1652 106.691 51.9192 106.121 51.4272 105.713C50.9352 105.293 50.2992 105.083 49.5192 105.083H49.0872L48.4212 104.057L51.3372 100.115H45.7392V98.5489H53.2992V100.025L50.5632 103.715ZM64.9216 107.189V108.755H63.3916V111.149H61.7176V108.755H55.2916V107.189L59.8096 98.5489H61.6096L57.0916 107.189H61.7176V103.625H63.3916V107.189H64.9216Z" fill="white"/>
<path d="M78.7885 103.463C79.9765 103.463 80.9785 103.817 81.7945 104.525C82.6225 105.221 83.0365 106.187 83.0365 107.423C83.0365 108.647 82.6165 109.613 81.7765 110.321C80.9365 111.029 79.9165 111.383 78.7165 111.383C77.7565 111.383 76.8985 111.155 76.1425 110.699C75.3865 110.231 74.8585 109.559 74.5585 108.683L75.9805 107.873C76.1485 108.485 76.4725 108.953 76.9525 109.277C77.4325 109.589 78.0205 109.745 78.7165 109.745C79.5085 109.745 80.1505 109.541 80.6425 109.133C81.1345 108.725 81.3805 108.155 81.3805 107.423C81.3805 106.691 81.1345 106.121 80.6425 105.713C80.1505 105.293 79.5205 105.083 78.7525 105.083H75.1885L75.6565 98.5489H82.5505V100.115H77.1685L76.9525 103.463H78.7885ZM88.5439 102.905C89.8039 102.905 90.8419 103.301 91.6579 104.093C92.4739 104.873 92.8819 105.887 92.8819 107.135C92.8819 108.383 92.4739 109.403 91.6579 110.195C90.8419 110.987 89.8039 111.383 88.5439 111.383C87.2719 111.383 86.2279 110.987 85.4119 110.195C84.6079 109.403 84.2059 108.383 84.2059 107.135C84.2059 106.163 84.4579 105.323 84.9619 104.615L89.0119 98.5489H90.9199L87.9499 102.941C88.2139 102.917 88.4119 102.905 88.5439 102.905ZM86.5999 109.061C87.1039 109.541 87.7519 109.781 88.5439 109.781C89.3359 109.781 89.9779 109.541 90.4699 109.061C90.9739 108.569 91.2259 107.927 91.2259 107.135C91.2259 106.343 90.9739 105.707 90.4699 105.227C89.9779 104.747 89.3359 104.507 88.5439 104.507C87.7399 104.507 87.0919 104.747 86.5999 105.227C86.1079 105.707 85.8619 106.343 85.8619 107.135C85.8619 107.927 86.1079 108.569 86.5999 109.061ZM92.6216 98.5489H100.488V100.043L95.8976 111.149H94.1516L98.7056 100.133H92.6216V98.5489ZM107.763 104.633C108.375 104.945 108.855 105.365 109.203 105.893C109.551 106.421 109.725 107.021 109.725 107.693C109.725 108.845 109.323 109.751 108.519 110.411C107.715 111.059 106.677 111.383 105.405 111.383C104.145 111.383 103.113 111.059 102.309 110.411C101.505 109.751 101.103 108.845 101.103 107.693C101.103 107.021 101.277 106.421 101.625 105.893C101.973 105.365 102.453 104.945 103.065 104.633C102.033 103.985 101.517 103.067 101.517 101.879C101.517 100.739 101.895 99.8629 102.651 99.2509C103.419 98.6269 104.337 98.3149 105.405 98.3149C106.485 98.3149 107.403 98.6269 108.159 99.2509C108.927 99.8629 109.311 100.739 109.311 101.879C109.311 103.067 108.795 103.985 107.763 104.633ZM105.405 99.9169C104.769 99.9169 104.235 100.085 103.803 100.421C103.383 100.757 103.173 101.255 103.173 101.915C103.173 102.551 103.389 103.049 103.821 103.409C104.253 103.757 104.781 103.931 105.405 103.931C106.029 103.931 106.557 103.757 106.989 103.409C107.421 103.049 107.637 102.551 107.637 101.915C107.637 101.255 107.427 100.757 107.007 100.421C106.587 100.085 106.053 99.9169 105.405 99.9169ZM105.405 109.781C106.209 109.781 106.851 109.595 107.331 109.223C107.823 108.839 108.069 108.293 108.069 107.585C108.069 106.889 107.823 106.355 107.331 105.983C106.851 105.599 106.209 105.407 105.405 105.407C104.613 105.407 103.971 105.599 103.479 105.983C102.999 106.355 102.759 106.889 102.759 107.585C102.759 108.293 102.999 108.839 103.479 109.223C103.971 109.595 104.613 109.781 105.405 109.781Z" fill="white"/>
<path d="M128.68 102.545C128.68 103.517 128.422 104.363 127.906 105.083H127.924L123.856 111.149H121.966L124.954 106.739C124.69 106.763 124.486 106.775 124.342 106.775C123.07 106.775 122.026 106.385 121.21 105.605C120.406 104.813 120.004 103.793 120.004 102.545C120.004 101.297 120.406 100.283 121.21 99.5029C122.026 98.7109 123.07 98.3149 124.342 98.3149C125.614 98.3149 126.652 98.7109 127.456 99.5029C128.272 100.283 128.68 101.297 128.68 102.545ZM122.398 100.637C121.906 101.117 121.66 101.753 121.66 102.545C121.66 103.337 121.906 103.979 122.398 104.471C122.902 104.951 123.55 105.191 124.342 105.191C125.134 105.191 125.776 104.951 126.268 104.471C126.772 103.979 127.024 103.337 127.024 102.545C127.024 101.753 126.778 101.117 126.286 100.637C125.794 100.157 125.146 99.9169 124.342 99.9169C123.55 99.9169 122.902 100.157 122.398 100.637ZM132.75 98.5489H134.19V111.149H132.534V100.349L129.852 101.141L129.438 99.7009L132.75 98.5489ZM144.854 109.601C144.002 110.789 142.808 111.383 141.272 111.383C139.736 111.383 138.542 110.789 137.69 109.601C136.838 108.413 136.412 106.829 136.412 104.849C136.412 102.869 136.838 101.285 137.69 100.097C138.542 98.9089 139.736 98.3149 141.272 98.3149C142.808 98.3149 144.002 98.9089 144.854 100.097C145.706 101.285 146.132 102.869 146.132 104.849C146.132 106.829 145.706 108.413 144.854 109.601ZM138.914 108.467C139.466 109.319 140.252 109.745 141.272 109.745C142.292 109.745 143.078 109.319 143.63 108.467C144.194 107.615 144.476 106.409 144.476 104.849C144.476 103.289 144.194 102.083 143.63 101.231C143.078 100.367 142.292 99.9349 141.272 99.9349C140.252 99.9349 139.466 100.361 138.914 101.213C138.362 102.065 138.086 103.277 138.086 104.849C138.086 106.409 138.362 107.615 138.914 108.467ZM150.152 98.5489H151.592V111.149H149.936V100.349L147.254 101.141L146.84 99.7009L150.152 98.5489Z" fill="white"/>
<path d="M166.278 98.5489H167.718V111.149H166.062V100.349L163.38 101.141L162.966 99.7009L166.278 98.5489ZM172.694 98.5489H174.134V111.149H172.478V100.349L169.796 101.141L169.382 99.7009L172.694 98.5489ZM176.194 111.149V109.781L180.64 105.245C181.828 104.057 182.422 103.037 182.422 102.185C182.422 101.477 182.206 100.925 181.774 100.529C181.342 100.133 180.814 99.9349 180.19 99.9349C179.002 99.9349 178.138 100.499 177.598 101.627L176.194 100.799C176.59 99.9829 177.136 99.3649 177.832 98.9449C178.54 98.5249 179.32 98.3149 180.172 98.3149C181.228 98.3149 182.146 98.6629 182.926 99.3589C183.706 100.055 184.096 100.991 184.096 102.167C184.096 103.439 183.346 104.825 181.846 106.325L178.624 109.529H184.33V111.149H176.194ZM188.515 98.5489H189.955V111.149H188.299V100.349L185.617 101.141L185.203 99.7009L188.515 98.5489Z" fill="white"/>
<defs>
<filter id="filter0_dd_237_85" x="0.857142" y="0.0775099" width="303.286" height="201.143" filterUnits="userSpaceOnUse" color-interpolation-filters="sRGB">
<feFlood flood-opacity="0" result="BackgroundImageFix"/>
<feColorMatrix in="SourceAlpha" type="matrix" values="0 0 0 0 0 0 0 0 0 0 0 0 0 0 0 0 0 0 127 0" result="hardAlpha"/>
<feOffset dx="4.71429" dy="4.71429"/>
<feGaussianBlur stdDeviation="4.71429"/>
<feComposite in2="hardAlpha" operator="out"/>
<feColorMatrix type="matrix" values="0 0 0 0 0 0 0 0 0 0 0 0 0 0 0 0 0 0 0.16 0"/>
<feBlend mode="normal" in2="BackgroundImageFix" result="effect1_dropShadow_237_85"/>
<feColorMatrix in="SourceAlpha" type="matrix" values="0 0 0 0 0 0 0 0 0 0 0 0 0 0 0 0 0 0 127 0" result="hardAlpha"/>
<feOffset dx="-4.71429" dy="-4.71429"/>
<feGaussianBlur stdDeviation="4.71429"/>
<feComposite in2="hardAlpha" operator="out"/>
<feColorMatrix type="matrix" values="0 0 0 0 1 0 0 0 0 1 0 0 0 0 1 0 0 0 0.04 0"/>
<feBlend mode="normal" in2="effect1_dropShadow_237_85" result="effect2_dropShadow_237_85"/>
<feBlend mode="normal" in="SourceGraphic" in2="effect2_dropShadow_237_85" result="shape"/>
</filter>
<clipPath id="clip0_237_85">
<rect width="39.2857" height="23.8796" fill="white" transform="translate(236.572 37.0061)"/>
</clipPath>
</defs>
</svg>
